<svg id="Layer_1" data-name="Layer 1" xmlns="http://www.w3.org/2000/svg" width="125" height="128" viewBox="0 0 125 128"><defs><style>.cls-1,.cls-2{fill:#fff;}.cls-2{stroke:#fff;stroke-linecap:round;stroke-linejoin:round;stroke-width:0.5px;}</style></defs><rect x="0.5" y="0.5" width="124" height="127"/><path d="M124,1V127H1V1H124m1-1H0V128H125V0Z"/><path class="cls-1" d="M22.79,119.06a4,4,0,0,1-.59.35,5.94,5.94,0,0,1-.89.34,8.67,8.67,0,0,1-1.14.27,8.19,8.19,0,0,1-1.34.1,6.59,6.59,0,0,1-2.69-.52,6,6,0,0,1-2-1.4,6.2,6.2,0,0,1-1.27-2,6.85,6.85,0,0,1-.44-2.48,6.66,6.66,0,0,1,.52-2.67,6.41,6.41,0,0,1,3.53-3.48A6.78,6.78,0,0,1,19,107a7.93,7.93,0,0,1,2,.27,5,5,0,0,1,.83.29,2.49,2.49,0,0,1,.56.34,3.53,3.53,0,0,0-.22.36c-.06.09-.11.19-.17.29s-.13.21-.2.34-.16.31-.28.52a2,2,0,0,0-.54-.27,4.64,4.64,0,0,0-.64-.17,5.5,5.5,0,0,0-.69-.11c-.23,0-.43,0-.62,0a4.74,4.74,0,0,0-1.9.38,4.92,4.92,0,0,0-1.52,1,4.85,4.85,0,0,0-1,1.49,4.36,4.36,0,0,0-.37,1.77,4.46,4.46,0,0,0,.35,1.73,5,5,0,0,0,.95,1.49,4.72,4.72,0,0,0,1.47,1,4.49,4.49,0,0,0,1.88.39,5.22,5.22,0,0,0,1.06-.1c.35-.08.65-.16.93-.25a4.79,4.79,0,0,0,.69-.29,1.15,1.15,0,0,0,.33-.21Z"/><path class="cls-1" d="M30.76,120.14H29.49l-.17-2a4.06,4.06,0,0,1-1.15,1.49,2.93,2.93,0,0,1-1.86.58,2.52,2.52,0,0,1-1.79-.61,2.15,2.15,0,0,1-.7-1.6v-5.36h1.5v4.69a1.44,1.44,0,0,0,.4.93,1.63,1.63,0,0,0,1.12.45,2.54,2.54,0,0,0,1-.19,2.24,2.24,0,0,0,.76-.5,2.45,2.45,0,0,0,.5-.76,2.59,2.59,0,0,0,.17-1v-3.64h1.52Z"/><path class="cls-1" d="M37,113.25l-.8,1.06-.12-.09a1.22,1.22,0,0,0-.28-.14c-.11,0-.24-.09-.39-.14a1.63,1.63,0,0,0-.45-.06,1.38,1.38,0,0,0-.59.14.55.55,0,0,0-.29.53.69.69,0,0,0,.24.55,2.4,2.4,0,0,0,.59.38l.77.35a4.12,4.12,0,0,1,.77.43,2.27,2.27,0,0,1,.59.64,1.75,1.75,0,0,1,.24,1,2.18,2.18,0,0,1-.68,1.64,2.62,2.62,0,0,1-1.87.64,3.92,3.92,0,0,1-1.35-.24,2.53,2.53,0,0,1-1.07-.7,3.15,3.15,0,0,0,.27-.31l.3-.38c.1-.11.19-.21.25-.29l.12-.11s0,0,.13.1a2.64,2.64,0,0,0,.35.19l.47.18a2,2,0,0,0,.53.08,1.17,1.17,0,0,0,.73-.22.66.66,0,0,0,.3-.56.63.63,0,0,0-.24-.51,3.54,3.54,0,0,0-.59-.34l-.78-.33a3.3,3.3,0,0,1-.78-.43,2.5,2.5,0,0,1-.59-.66,2,2,0,0,1-.24-1,2.09,2.09,0,0,1,.22-1,2,2,0,0,1,.57-.66,2.29,2.29,0,0,1,.77-.37,2.92,2.92,0,0,1,.81-.11,3.28,3.28,0,0,1,1.1.21,2.68,2.68,0,0,1,1,.62"/><polygon class="cls-1" points="39.53 109.34 41.04 109.34 41.04 112.61 43.02 112.61 43.02 113.95 41.04 113.95 41.04 119.98 39.53 119.98 39.53 113.95 38.21 113.95 38.21 112.61 39.53 112.61 39.53 109.34"/><path class="cls-1" d="M43.6,116.27a3.63,3.63,0,0,1,.31-1.5,4.07,4.07,0,0,1,.84-1.23,3.85,3.85,0,0,1,1.25-.83,3.75,3.75,0,0,1,1.54-.31,3.81,3.81,0,0,1,3.6,2.37,4,4,0,0,1,0,3,3.86,3.86,0,0,1-.81,1.24,4,4,0,0,1-1.24.84,3.86,3.86,0,0,1-1.57.31,4.23,4.23,0,0,1-1.52-.28,3.77,3.77,0,0,1-1.25-.8,3.84,3.84,0,0,1-.84-1.23,3.87,3.87,0,0,1-.31-1.58m1.5,0a2.17,2.17,0,0,0,.19.92,2.35,2.35,0,0,0,.51.77,2.67,2.67,0,0,0,.76.51,2.41,2.41,0,0,0,.93.18,2.5,2.5,0,0,0,.94-.18,2.72,2.72,0,0,0,.77-.51,2.75,2.75,0,0,0,.52-.77,2.17,2.17,0,0,0,.19-.92,2.29,2.29,0,0,0-.19-.94,2.75,2.75,0,0,0-.52-.77,2.35,2.35,0,0,0-.77-.51,2.32,2.32,0,0,0-.94-.19,2.24,2.24,0,0,0-.93.19,2.31,2.31,0,0,0-.76.51,2.35,2.35,0,0,0-.51.77,2.29,2.29,0,0,0-.19.94"/><path class="cls-1" d="M53,112.59h1.33c0,.37,0,.7.06,1l.06.89A4,4,0,0,1,55.56,113a2.73,2.73,0,0,1,1.78-.57,2.58,2.58,0,0,1,1.73.55,2.09,2.09,0,0,1,.76,1.43A4.14,4.14,0,0,1,60.92,113a2.68,2.68,0,0,1,1.74-.55,2.52,2.52,0,0,1,1.81.62,2.22,2.22,0,0,1,.7,1.59V120H63.65V115.3a1.64,1.64,0,0,0-.38-1,1.52,1.52,0,0,0-1.12-.43,2.13,2.13,0,0,0-1.67.68,2.66,2.66,0,0,0-.63,1.74V120H58.34V115.3a1.53,1.53,0,0,0-.39-1,1.55,1.55,0,0,0-1.11-.43,2.24,2.24,0,0,0-1,.19,2.11,2.11,0,0,0-.73.5,2.24,2.24,0,0,0-.46.76,3,3,0,0,0-.16,1V120H53Z"/><path class="cls-1" d="M67,109.76a.92.92,0,0,1,.31-.7,1,1,0,0,1,.67-.29.94.94,0,0,1,.65.29.91.91,0,0,1,.3.7.89.89,0,0,1-.3.7,1,1,0,0,1-.65.28,1,1,0,0,1-.67-.28.9.9,0,0,1-.31-.7M68.72,120h-1.5v-7.39h1.5Z"/><path class="cls-1" d="M75,113.25l-.79,1.06-.13-.09a1.13,1.13,0,0,0-.27-.14c-.11,0-.24-.09-.39-.14a1.74,1.74,0,0,0-.45-.06,1.38,1.38,0,0,0-.59.14.54.54,0,0,0-.3.53.69.69,0,0,0,.24.55,2.47,2.47,0,0,0,.6.38l.77.35a4,4,0,0,1,.76.43,2.16,2.16,0,0,1,.6.64,1.75,1.75,0,0,1,.23,1,2.14,2.14,0,0,1-.68,1.64,2.58,2.58,0,0,1-1.86.64,3.92,3.92,0,0,1-1.35-.24,2.47,2.47,0,0,1-1.07-.7,3.15,3.15,0,0,0,.27-.31l.3-.38.25-.29.11-.11a.42.42,0,0,0,.14.1l.34.19.48.18a2,2,0,0,0,.53.08,1.16,1.16,0,0,0,.72-.22.66.66,0,0,0,.3-.56.62.62,0,0,0-.23-.51,3.29,3.29,0,0,0-.6-.34c-.23-.11-.49-.22-.77-.33a3,3,0,0,1-.78-.43,2.19,2.19,0,0,1-.59-.66,2,2,0,0,1-.24-1,2.09,2.09,0,0,1,.22-1,2,2,0,0,1,.56-.66,2.39,2.39,0,0,1,.77-.37,3,3,0,0,1,.82-.11,3.22,3.22,0,0,1,1.09.21,2.53,2.53,0,0,1,1,.62"/><path class="cls-1" d="M83.11,119.12a4.08,4.08,0,0,1-1.29.76,4.57,4.57,0,0,1-1.55.28,3.7,3.7,0,0,1-1.53-.31,4,4,0,0,1-1.25-.83,4.07,4.07,0,0,1-.84-1.23,3.63,3.63,0,0,1-.31-1.5,3.71,3.71,0,0,1,.31-1.51,4.07,4.07,0,0,1,.84-1.23,3.74,3.74,0,0,1,1.23-.84,3.55,3.55,0,0,1,1.49-.31,3.38,3.38,0,0,1,2.19.75,4.15,4.15,0,0,1,1.33,2l-1.25.48-1.47.59-1.52.61-1.42.55a2.39,2.39,0,0,0,.88,1,2.36,2.36,0,0,0,1.28.36,2.94,2.94,0,0,0,1-.17A2.12,2.12,0,0,0,82,118Zm-1.27-4.35a1.41,1.41,0,0,0-.67-.67,2.27,2.27,0,0,0-.94-.22,2.23,2.23,0,0,0-.94.2A2.4,2.4,0,0,0,78,115.35a2.2,2.2,0,0,0-.19.87c0,.06,0,.1,0,.12a.11.11,0,0,1,0,0c.31-.11.64-.25,1-.39l1.07-.45,1-.42.88-.36"/><path class="cls-1" d="M85.16,106.6c.11.16.33.48.67.94L87,109.16c.45.61.91,1.27,1.41,2s1,1.33,1.4,1.94.81,1.13,1.14,1.58l.64.89.34-.48.7-1c.27-.39.59-.83.94-1.32l1.09-1.5,1.09-1.53,1-1.39c.31-.42.57-.78.79-1.1s.37-.52.47-.64V120H96V112.8c0-.09,0-.19,0-.3a1.31,1.31,0,0,0,0-.23l-.5.72-.8,1.15-.94,1.36-.94,1.35c-.3.43-.56.8-.78,1.13s-.38.55-.46.68l-.49-.67-.84-1.17-1-1.43-1-1.42-.79-1.12a4.52,4.52,0,0,1-.39-.58s0,.13,0,.23a1.69,1.69,0,0,1,0,.3V120H85.16Z"/><path class="cls-2" d="M106.54,119.12a4.31,4.31,0,0,1-1.29.76,4.67,4.67,0,0,1-1.56.28,3.77,3.77,0,0,1-1.53-.31,4,4,0,0,1-1.24-.83,3.74,3.74,0,0,1-.84-1.23,3.63,3.63,0,0,1-.31-1.5,3.85,3.85,0,0,1,1.15-2.74,3.8,3.8,0,0,1,1.22-.84,3.63,3.63,0,0,1,1.5-.31,3.36,3.36,0,0,1,2.18.75,4.17,4.17,0,0,1,1.34,2q-.55.19-1.26.48l-1.47.59-1.52.61-1.41.55a2.37,2.37,0,0,0,2.16,1.32,3,3,0,0,0,1-.17,2.2,2.2,0,0,0,.79-.48Zm-1.27-4.35a1.43,1.43,0,0,0-.68-.67,2.22,2.22,0,0,0-.93-.22,2.28,2.28,0,0,0-1,.2,2.34,2.34,0,0,0-.75.52,2.52,2.52,0,0,0-.5.75,2,2,0,0,0-.19.87.35.35,0,0,0,0,.12.43.43,0,0,0,0,0l1-.39,1.07-.45,1-.42Z"/><path class="cls-1" d="M65.05,30.43a61.1,61.1,0,0,1,9.07.16,30.2,30.2,0,0,0,6.63-12,30.23,30.23,0,0,0,1-11.93,40.37,40.37,0,0,0-6.39-1.27A24.43,24.43,0,0,1,65.05,30.43"/><path class="cls-1" d="M25.35,70A27.48,27.48,0,0,0,62.67,80.7a12.21,12.21,0,0,1,16.59,4.74l5.16-3.27a18,18,0,0,0-24.71-6.81A21.35,21.35,0,1,1,39,38L60.31,26.19A18.32,18.32,0,0,0,69,5.16a39.25,39.25,0,0,0-6.17.76,12.22,12.22,0,0,1-5.5,14.94L36,32.71A27.48,27.48,0,0,0,25.35,70"/><path class="cls-1" d="M86.62,20.25a36.31,36.31,0,0,1-3.32,8l-1.9,3.38,4,1.12a60.62,60.62,0,0,1,25.07,14.23c.07-1.19.08-2.39,0-3.59a41.15,41.15,0,0,0-.46-4.82,67.07,67.07,0,0,0-19.7-10.66,43.75,43.75,0,0,0,2.17-5.93,42.72,42.72,0,0,0,1.59-9.3A39.33,39.33,0,0,0,88,9a36.4,36.4,0,0,1-1.4,11.21"/><path class="cls-1" d="M14.69,76A39.69,39.69,0,0,0,68.6,91.36l5.33-3A6.1,6.1,0,0,0,65.64,86,33.55,33.55,0,1,1,33.06,27.37L54.39,15.53A6.11,6.11,0,0,0,57,7.62,41.55,41.55,0,0,0,51.6,10.1L30.1,22A39.69,39.69,0,0,0,14.69,76"/><path class="cls-1" d="M98.35,23.61c-.07.25-.15.5-.22.75a74,74,0,0,1,9.2,4.85,39.58,39.58,0,0,0-1.82-3.7,39.12,39.12,0,0,0-5.84-8,49.19,49.19,0,0,1-1.32,6.08"/><path class="cls-1" d="M105.22,61.2l3-6.18c-3.25-4.85-6.63-7.79-11.66-11.08a43.7,43.7,0,0,0-33.08-6.19,3.14,3.14,0,0,0,1.29,6.15C80.58,40.57,97,48.28,105.22,61.2"/><path class="cls-1" d="M98.8,60.65A43.71,43.71,0,0,0,67.25,49a3.14,3.14,0,0,0,.23,6.28c12.21-.47,23.71,5.35,31.14,14.31a63.7,63.7,0,0,0,4.16-4.87,55.56,55.56,0,0,0-4-4"/><path class="cls-1" d="M71.56,61.25a3.14,3.14,0,0,0-1.1,6.18A37.85,37.85,0,0,1,90,77.5c1.63-1.32,3.26-2.72,4.86-4.2a43.73,43.73,0,0,0-23.29-12"/><path class="cls-1" d="M63.92,66.38a9.54,9.54,0,0,1-1.07,1.31,16.06,16.06,0,0,1-1.77,1.59,22.39,22.39,0,0,1-2.41,1.61,19.84,19.84,0,0,1-3,1.43A16.73,16.73,0,0,1,49,73.51,15.22,15.22,0,0,1,43,72.07a15,15,0,0,1-4.76-3.59,16.84,16.84,0,0,1-3.19-5.29A16.24,16.24,0,0,1,34,56.59a15.84,15.84,0,0,1,1.45-6.1,16.38,16.38,0,0,1,3.69-5A16.84,16.84,0,0,1,44.62,42a19.48,19.48,0,0,1,2.49-.76,20,20,0,0,1,2.48-.44,12.75,12.75,0,0,1,2.19-.07,6,6,0,0,1,1.59.3c-.09.41-.16.75-.2,1s-.09.54-.14.82-.09.61-.14,1h0a1.49,1.49,0,0,1-1.46,1.28H51.2a13.74,13.74,0,0,0-1.66.17,16.6,16.6,0,0,0-1.67.36,14.48,14.48,0,0,0-1.48.47A11.71,11.71,0,0,0,38.7,56.73a11.06,11.06,0,0,0,1.49,6A8.46,8.46,0,0,0,41,64a12.14,12.14,0,0,0,4.23,3.38,11.29,11.29,0,0,0,4.31,1.1,11.18,11.18,0,0,0,4.71-.78,12.48,12.48,0,0,0,2.37-1.18,19.16,19.16,0,0,0,1.94-1.39,12.33,12.33,0,0,0,1.35-1.26h0a.92.92,0,0,1,1.31-.05Z"/><path class="cls-1" d="M49.57,74.74H48.9A16.09,16.09,0,0,1,37.37,69.3a18,18,0,0,1-3.43-5.68,17.74,17.74,0,0,1-1.21-7.08A17.08,17.08,0,0,1,34.3,50a17.4,17.4,0,0,1,4-5.42,18.12,18.12,0,0,1,5.93-3.66,21.75,21.75,0,0,1,2.63-.81,22.19,22.19,0,0,1,2.64-.46,13.18,13.18,0,0,1,2.4-.07,6.36,6.36,0,0,1,2,.38,1.21,1.21,0,0,1,.75,1.41c-.09.37-.15.68-.19.92s-.08.55-.13.84-.1.58-.15.92v0a2.72,2.72,0,0,1-2.66,2.3h-.19a13.13,13.13,0,0,0-1.5.15c-.52.08-1,.2-1.55.33a14,14,0,0,0-1.37.44,10.63,10.63,0,0,0-3.66,2.29,10.74,10.74,0,0,0-2.34,3.32,10.48,10.48,0,0,0-.9,3.87,9.94,9.94,0,0,0,1.33,5.38A8.24,8.24,0,0,0,42,63.22a11,11,0,0,0,3.81,3,10.08,10.08,0,0,0,8.06.29A12.71,12.71,0,0,0,56,65.47a17.72,17.72,0,0,0,1.81-1.3A10.86,10.86,0,0,0,59,63a2.13,2.13,0,0,1,3.07-.11l2.68,2.58A1.23,1.23,0,0,1,65,67a10.17,10.17,0,0,1-1.21,1.5,17.69,17.69,0,0,1-1.91,1.71A24.35,24.35,0,0,1,59.29,72a22.41,22.41,0,0,1-3.19,1.51,18.33,18.33,0,0,1-6.53,1.28M51.1,42a13.71,13.71,0,0,0-1.38.08,19.06,19.06,0,0,0-2.33.41,20.43,20.43,0,0,0-2.33.72,15.63,15.63,0,0,0-5.14,3.17,14.68,14.68,0,0,0-4.76,10.29,15.26,15.26,0,0,0,1.06,6.11,15.76,15.76,0,0,0,3,4.92A13.64,13.64,0,0,0,49,72.29a15.51,15.51,0,0,0,6.22-1.11,18.42,18.42,0,0,0,2.82-1.34,19.61,19.61,0,0,0,2.28-1.53A13.6,13.6,0,0,0,62,66.86l.33-.36-1.66-1.61a15.41,15.41,0,0,1-1.28,1.16,20.4,20.4,0,0,1-2.06,1.48,13.82,13.82,0,0,1-2.58,1.29,12.57,12.57,0,0,1-10-.36,13.52,13.52,0,0,1-4.64-3.71,10.5,10.5,0,0,1-.94-1.38,12.37,12.37,0,0,1-1.65-6.69,13,13,0,0,1,1.11-4.76A13,13,0,0,1,46,45c.47-.18,1-.35,1.6-.51s1.2-.29,1.8-.39,1.21-.15,1.8-.18h.27a.27.27,0,0,0,.26-.23c0-.39.1-.72.15-1L52,42l-.26,0-.59,0"/></svg>