<svg id="Layer_1" data-name="Layer 1" xmlns="http://www.w3.org/2000/svg" width="100.78" height="115.25" viewBox="0 0 100.78 115.25"><defs><style>.cls-1,.cls-2{fill:#373535;}.cls-2{stroke:#2a364a;stroke-linecap:round;stroke-linejoin:round;stroke-width:0.5px;}</style></defs><path class="cls-1" d="M13.08,113.9a3.52,3.52,0,0,1-.59.35,5.94,5.94,0,0,1-.89.34,8,8,0,0,1-1.14.27,8.11,8.11,0,0,1-1.34.1,6.59,6.59,0,0,1-2.69-.52,6,6,0,0,1-2-1.4A6.37,6.37,0,0,1,3.13,111a7.07,7.07,0,0,1-.44-2.48,6.66,6.66,0,0,1,.52-2.67,6.55,6.55,0,0,1,1.42-2.1,6.48,6.48,0,0,1,2.12-1.38,6.69,6.69,0,0,1,2.57-.5,9.24,9.24,0,0,1,1,.07,8.84,8.84,0,0,1,1,.2,5,5,0,0,1,.83.29,2.17,2.17,0,0,1,.56.35,2.68,2.68,0,0,0-.22.35c-.06.09-.11.19-.17.29s-.12.22-.19.35-.17.3-.29.51a2,2,0,0,0-.54-.27,4.29,4.29,0,0,0-.64-.17,5.35,5.35,0,0,0-.68-.11c-.23,0-.44,0-.63,0a4.77,4.77,0,0,0-1.9.38,4.87,4.87,0,0,0-1.51,1,4.71,4.71,0,0,0-1,1.49,4.52,4.52,0,0,0-.36,1.77A4.45,4.45,0,0,0,5,110.08a4.88,4.88,0,0,0,1,1.49,4.41,4.41,0,0,0,1.46,1,4.5,4.5,0,0,0,1.89.39,5.36,5.36,0,0,0,1.06-.1c.34-.08.65-.16.92-.25a6.47,6.47,0,0,0,.69-.28,1,1,0,0,0,.33-.22Z"/><path class="cls-1" d="M21.06,115H19.78l-.17-2a3.94,3.94,0,0,1-1.14,1.49,3,3,0,0,1-1.87.58,2.52,2.52,0,0,1-1.79-.61,2.19,2.19,0,0,1-.7-1.6v-5.36h1.5v4.69a1.49,1.49,0,0,0,.4.93,1.65,1.65,0,0,0,1.12.45,2.41,2.41,0,0,0,1-.19,2.45,2.45,0,0,0,.76-.5,2.42,2.42,0,0,0,.49-.76,2.59,2.59,0,0,0,.18-1v-3.64h1.52Z"/><path class="cls-1" d="M27.3,108.09l-.8,1.06-.12-.09a1.45,1.45,0,0,0-.28-.14,2.8,2.8,0,0,0-.38-.13,1.41,1.41,0,0,0-.45-.07,1.42,1.42,0,0,0-.6.14.56.56,0,0,0-.29.54.68.68,0,0,0,.24.54,2.61,2.61,0,0,0,.59.38c.24.12.49.23.77.35a4.12,4.12,0,0,1,.77.43,2.13,2.13,0,0,1,.59.64,1.75,1.75,0,0,1,.24,1,2.18,2.18,0,0,1-.68,1.64A2.6,2.6,0,0,1,25,115a4,4,0,0,1-1.36-.24,2.53,2.53,0,0,1-1.07-.7,2.22,2.22,0,0,0,.28-.31c.1-.13.2-.26.3-.37l.25-.3c.06-.07.1-.11.11-.11s0,0,.13.1a2.21,2.21,0,0,0,.35.19,3.74,3.74,0,0,0,.48.18,1.89,1.89,0,0,0,.53.08,1.16,1.16,0,0,0,.72-.22.66.66,0,0,0,.3-.56.59.59,0,0,0-.24-.5,2.7,2.7,0,0,0-.59-.35l-.78-.33a3.3,3.3,0,0,1-.78-.43,2.5,2.5,0,0,1-.59-.66,2,2,0,0,1-.24-1,2.22,2.22,0,0,1,.22-1,2,2,0,0,1,.57-.66,2.39,2.39,0,0,1,.77-.37,2.92,2.92,0,0,1,.81-.11,3.28,3.28,0,0,1,1.1.21,2.65,2.65,0,0,1,1,.62"/><polygon class="cls-1" points="29.83 104.18 31.33 104.18 31.33 107.45 33.31 107.45 33.31 108.79 31.33 108.79 31.33 114.82 29.83 114.82 29.83 108.79 28.5 108.79 28.5 107.45 29.83 107.45 29.83 104.18"/><path class="cls-1" d="M33.89,111.11a3.8,3.8,0,0,1,.31-1.5,4.07,4.07,0,0,1,.84-1.23,4,4,0,0,1,1.25-.83,4,4,0,0,1,4.33.83,3.66,3.66,0,0,1,.81,1.23,4,4,0,0,1,0,3,3.7,3.7,0,0,1-.81,1.24,4,4,0,0,1-1.24.84,3.85,3.85,0,0,1-1.56.31,4.08,4.08,0,0,1-1.53-.28,3.88,3.88,0,0,1-1.25-.8,3.84,3.84,0,0,1-.84-1.23,4,4,0,0,1-.31-1.58m1.51,0a2.41,2.41,0,0,0,.18.93,2.37,2.37,0,0,0,1.27,1.27,2.41,2.41,0,0,0,.93.18,2.5,2.5,0,0,0,.94-.18A2.41,2.41,0,0,0,40,112.06a2.24,2.24,0,0,0,.19-.93,2.32,2.32,0,0,0-.19-.94,2.55,2.55,0,0,0-.52-.77,2.35,2.35,0,0,0-.77-.51,2.5,2.5,0,0,0-.94-.19,2.41,2.41,0,0,0-.93.19,2.31,2.31,0,0,0-.76.51,2.52,2.52,0,0,0-.51.77,2.5,2.5,0,0,0-.18.94"/><path class="cls-1" d="M43.33,107.43h1.33c0,.37,0,.7.06,1l.06.89a4,4,0,0,1,1.07-1.51,2.75,2.75,0,0,1,1.78-.57,2.57,2.57,0,0,1,1.73.55,2.09,2.09,0,0,1,.76,1.43,4.26,4.26,0,0,1,1.09-1.43,2.68,2.68,0,0,1,1.74-.55,2.5,2.5,0,0,1,1.81.62,2.18,2.18,0,0,1,.7,1.59v5.37H53.94v-4.68a1.58,1.58,0,0,0-.38-1,1.51,1.51,0,0,0-1.12-.43,2.1,2.1,0,0,0-1.66.68,2.69,2.69,0,0,0-.64,1.74v3.66h-1.5v-4.68a1.6,1.6,0,0,0-.4-1,1.53,1.53,0,0,0-1.11-.43,2.24,2.24,0,0,0-1,.19,2.21,2.21,0,0,0-.73.5,2.24,2.24,0,0,0-.46.76,3,3,0,0,0-.15,1v3.66H43.33Z"/><path class="cls-1" d="M57.32,104.6a.9.9,0,0,1,.31-.7,1,1,0,0,1,.66-.29,1,1,0,0,1,1,1,.89.89,0,0,1-.3.7.91.91,0,0,1-.65.28.93.93,0,0,1-.66-.28.87.87,0,0,1-.31-.7M59,114.82h-1.5v-7.39H59Z"/><path class="cls-1" d="M65.25,108.09l-.79,1.06-.12-.09a2.43,2.43,0,0,0-.28-.14,2.54,2.54,0,0,0-.39-.13,1.33,1.33,0,0,0-.45-.07,1.38,1.38,0,0,0-.59.14.56.56,0,0,0-.29.54.68.68,0,0,0,.24.54,2.4,2.4,0,0,0,.59.38c.23.12.49.23.77.35a4.46,4.46,0,0,1,.77.43,2.27,2.27,0,0,1,.59.64,1.75,1.75,0,0,1,.24,1,2.18,2.18,0,0,1-.68,1.64A2.62,2.62,0,0,1,63,115a3.92,3.92,0,0,1-1.35-.24,2.53,2.53,0,0,1-1.07-.7,3.15,3.15,0,0,0,.27-.31c.1-.13.2-.26.3-.37l.25-.3.12-.11s0,0,.13.1a2.06,2.06,0,0,0,.34.19,4.4,4.4,0,0,0,.48.18,2,2,0,0,0,.53.08,1.19,1.19,0,0,0,.73-.22.66.66,0,0,0,.3-.56.59.59,0,0,0-.24-.5,3,3,0,0,0-.59-.35l-.78-.33a3.3,3.3,0,0,1-.78-.43,2.33,2.33,0,0,1-.59-.66,2,2,0,0,1-.24-1,2.09,2.09,0,0,1,.22-1,2,2,0,0,1,.57-.66,2.29,2.29,0,0,1,.77-.37,2.92,2.92,0,0,1,.81-.11,3.18,3.18,0,0,1,1.09.21,2.65,2.65,0,0,1,1,.62"/><path class="cls-1" d="M73.41,114a4.24,4.24,0,0,1-1.3.76,4.34,4.34,0,0,1-1.55.28,3.77,3.77,0,0,1-1.53-.31,4.13,4.13,0,0,1-1.25-.83,4.07,4.07,0,0,1-.84-1.23,3.8,3.8,0,0,1-.31-1.5,3.88,3.88,0,0,1,.31-1.51,4.07,4.07,0,0,1,.84-1.23,4,4,0,0,1,1.23-.84,3.63,3.63,0,0,1,1.5-.31,3.38,3.38,0,0,1,2.18.75A4.15,4.15,0,0,1,74,110l-1.25.48L71.3,111l-1.52.61-1.41.55a2.37,2.37,0,0,0,2.15,1.32,2.8,2.8,0,0,0,1-.17,2.15,2.15,0,0,0,.78-.48Zm-1.28-4.35a1.36,1.36,0,0,0-.67-.67,2.21,2.21,0,0,0-1.88,0,2.34,2.34,0,0,0-.75.52,2.56,2.56,0,0,0-.51.75,2.19,2.19,0,0,0-.18.87.35.35,0,0,0,0,.12v0c.31-.11.64-.25,1-.39l1.07-.45,1-.42.88-.36"/><path class="cls-1" d="M75.46,101.44c.1.16.32.48.66,1L77.29,104l1.4,2,1.4,1.94c.43.61.81,1.14,1.14,1.58l.64.89.34-.48.7-1,.94-1.32,1.09-1.5,1.1-1.53c.36-.51.69-1,1-1.39s.57-.78.78-1.1.38-.52.47-.64v13.38H86.24v-7.18a1.69,1.69,0,0,1,0-.3,1.11,1.11,0,0,0,0-.23l-.5.72c-.23.34-.49.72-.8,1.15l-.94,1.36c-.33.48-.64.93-.94,1.35l-.78,1.13-.46.68-.48-.67-.85-1.17-1-1.43-1-1.42-.79-1.12c-.22-.31-.35-.5-.39-.58a1.31,1.31,0,0,0,0,.23c0,.11,0,.21,0,.3v7.18H75.46Z"/><path class="cls-2" d="M96.83,114a4.08,4.08,0,0,1-1.29.76A4.43,4.43,0,0,1,94,115a3.69,3.69,0,0,1-1.52-.31,4,4,0,0,1-1.25-.83,4.07,4.07,0,0,1-.84-1.23,3.63,3.63,0,0,1-.31-1.5,3.71,3.71,0,0,1,.31-1.51,4.07,4.07,0,0,1,.84-1.23,3.74,3.74,0,0,1,1.23-.84,3.55,3.55,0,0,1,1.49-.31,3.38,3.38,0,0,1,2.19.75,4.22,4.22,0,0,1,1.33,2c-.37.13-.78.29-1.26.48l-1.46.59-1.52.61-1.42.55a2.32,2.32,0,0,0,.88,1,2.36,2.36,0,0,0,1.28.36,2.7,2.7,0,0,0,1-.17,2.12,2.12,0,0,0,.79-.48Zm-1.27-4.35a1.41,1.41,0,0,0-.67-.67,2.27,2.27,0,0,0-.94-.22,2.31,2.31,0,0,0-1,.2,2.34,2.34,0,0,0-.75.52,2.52,2.52,0,0,0-.5.75,2,2,0,0,0-.19.87c0,.06,0,.1,0,.12a.11.11,0,0,1,0,0c.31-.11.64-.25,1-.39l1.07-.45,1-.42Z"/><path class="cls-1" d="M55.34,25.27a61,61,0,0,1,9.07.16,30.35,30.35,0,0,0,6.64-12A30.61,30.61,0,0,0,72,1.49,40.82,40.82,0,0,0,65.64.22a24.46,24.46,0,0,1-10.3,25.05"/><path class="cls-1" d="M15.65,64.87A27.47,27.47,0,0,0,53,75.54a12.21,12.21,0,0,1,16.59,4.74L74.71,77A18,18,0,0,0,50,70.21,21.35,21.35,0,0,1,29.27,32.88L50.6,21A18.32,18.32,0,0,0,59.31,0a39.25,39.25,0,0,0-6.17.76,12.21,12.21,0,0,1-5.5,14.94L26.31,27.55A27.47,27.47,0,0,0,15.65,64.87"/><path class="cls-1" d="M76.91,15.1a36.72,36.72,0,0,1-3.32,8l-1.9,3.38,4,1.11a60.76,60.76,0,0,1,25.06,14.23c.07-1.19.08-2.39,0-3.59a39.29,39.29,0,0,0-.46-4.82A67,67,0,0,0,80.6,22.7a42.49,42.49,0,0,0,2.18-5.93,43.31,43.31,0,0,0,1.58-9.3,39.72,39.72,0,0,0-6-3.59A36.82,36.82,0,0,1,76.91,15.1"/><path class="cls-1" d="M5,70.79A39.69,39.69,0,0,0,58.89,86.2l5.33-3a6.1,6.1,0,0,0-8.29-2.37A33.55,33.55,0,1,1,23.35,22.22L44.68,10.37a6.11,6.11,0,0,0,2.57-7.9A39,39,0,0,0,41.9,4.94L20.39,16.88A39.7,39.7,0,0,0,5,70.79"/><path class="cls-1" d="M88.64,18.45c-.07.25-.14.5-.22.75a73.33,73.33,0,0,1,9.2,4.85c-.54-1.25-1.14-2.49-1.81-3.7a39.89,39.89,0,0,0-5.84-8,51.13,51.13,0,0,1-1.33,6.08"/><path class="cls-1" d="M95.51,56l3-6.18C95.26,45,91.87,42.07,86.84,38.78A43.69,43.69,0,0,0,53.76,32.6a3.14,3.14,0,1,0,1.3,6.14C70.87,35.41,87.34,43.12,95.51,56"/><path class="cls-1" d="M89.1,55.5A43.72,43.72,0,0,0,57.54,43.81a3.14,3.14,0,0,0,.24,6.28A39.08,39.08,0,0,1,88.92,64.4c1.46-1.56,2.86-3.19,4.15-4.87a53.34,53.34,0,0,0-4-4"/><path class="cls-1" d="M61.85,56.09a3.14,3.14,0,1,0-1.09,6.18A37.85,37.85,0,0,1,80.28,72.34c1.63-1.32,3.26-2.72,4.86-4.2a43.69,43.69,0,0,0-23.29-12"/><path class="cls-1" d="M54.21,61.22a9,9,0,0,1-1.07,1.31,16.06,16.06,0,0,1-1.77,1.59A22.39,22.39,0,0,1,49,65.73a19.84,19.84,0,0,1-3,1.43,16.7,16.7,0,0,1-6.71,1.19,14.84,14.84,0,0,1-10.68-5A16.87,16.87,0,0,1,25.37,58a16.41,16.41,0,0,1-1.13-6.6,16,16,0,0,1,1.45-6.1,16.38,16.38,0,0,1,3.69-5,16.89,16.89,0,0,1,5.54-3.41,19.33,19.33,0,0,1,2.48-.76,19.79,19.79,0,0,1,2.49-.44,11.63,11.63,0,0,1,2.18-.06,5.58,5.58,0,0,1,1.59.29c-.09.41-.16.75-.2,1s-.08.54-.13.82-.1.61-.15,1h0A1.49,1.49,0,0,1,41.71,40h-.22a13.58,13.58,0,0,0-1.65.17,16.78,16.78,0,0,0-1.68.36,15.33,15.33,0,0,0-1.48.47A11.84,11.84,0,0,0,30,47.25a11.67,11.67,0,0,0-1,4.32,11.1,11.1,0,0,0,1.49,6,9.72,9.72,0,0,0,.83,1.22,12.32,12.32,0,0,0,4.23,3.37,11.28,11.28,0,0,0,9,.33,13.13,13.13,0,0,0,2.37-1.19A19.16,19.16,0,0,0,48.87,60a12.33,12.33,0,0,0,1.35-1.26h0a.92.92,0,0,1,1.31,0Z"/><path class="cls-1" d="M39.86,69.58h-.67a16.09,16.09,0,0,1-11.53-5.43,18.23,18.23,0,0,1-3.43-5.68A17.71,17.71,0,0,1,23,51.38a17.27,17.27,0,0,1,1.57-6.56,17.52,17.52,0,0,1,4-5.42,18.4,18.4,0,0,1,5.93-3.66,21.82,21.82,0,0,1,5.27-1.27,13.2,13.2,0,0,1,2.4-.07,6.6,6.6,0,0,1,2,.38,1.21,1.21,0,0,1,.75,1.41,8.54,8.54,0,0,0-.18.92c0,.27-.09.55-.14.84s-.09.58-.14.92a.09.09,0,0,0,0,.05,2.72,2.72,0,0,1-2.66,2.3h-.18a13.3,13.3,0,0,0-1.51.15c-.52.09-1,.2-1.55.34a13.19,13.19,0,0,0-1.37.43,10.63,10.63,0,0,0-3.66,2.29,10.49,10.49,0,0,0-3.24,7.19A9.94,9.94,0,0,0,31.54,57a7.6,7.6,0,0,0,.72,1.06,11.06,11.06,0,0,0,3.81,3,10.08,10.08,0,0,0,8.06.29,12.35,12.35,0,0,0,2.15-1.08A17.72,17.72,0,0,0,48.09,59a11.92,11.92,0,0,0,1.22-1.13,2.12,2.12,0,0,1,3.07-.12l2.68,2.58a1.21,1.21,0,0,1,.18,1.53A9.55,9.55,0,0,1,54,63.37a18.51,18.51,0,0,1-1.9,1.71,24.54,24.54,0,0,1-2.55,1.71,21.9,21.9,0,0,1-3.19,1.51,18.33,18.33,0,0,1-6.53,1.28m1.53-32.77a13.35,13.35,0,0,0-1.37.08,18.88,18.88,0,0,0-2.34.41,20.43,20.43,0,0,0-2.33.72,15.74,15.74,0,0,0-5.14,3.17,15,15,0,0,0-3.41,4.66,14.59,14.59,0,0,0-1.34,5.63,15.24,15.24,0,0,0,1.05,6.11,15.78,15.78,0,0,0,3,4.92,13.64,13.64,0,0,0,9.82,4.62A15.34,15.34,0,0,0,45.52,66a18,18,0,0,0,2.82-1.34,20,20,0,0,0,2.28-1.52,15.66,15.66,0,0,0,1.64-1.46l.32-.36-1.66-1.61a14,14,0,0,1-1.28,1.16,20.21,20.21,0,0,1-2,1.48A14.22,14.22,0,0,1,45,63.66a12.44,12.44,0,0,1-10-.36,13.56,13.56,0,0,1-4.65-3.71,10.5,10.5,0,0,1-.94-1.38,12.37,12.37,0,0,1-1.65-6.69,13.15,13.15,0,0,1,1.11-4.76,13.39,13.39,0,0,1,2.87-4.08,13.13,13.13,0,0,1,4.49-2.82,16.27,16.27,0,0,1,1.61-.51c.59-.16,1.19-.29,1.79-.39a16.3,16.3,0,0,1,1.8-.17h.27a.27.27,0,0,0,.26-.23c.05-.39.11-.72.16-1s.07-.46.11-.68l-.25,0-.6,0"/></svg>