<svg xmlns="http://www.w3.org/2000/svg" width="38" height="40" fill="none" viewBox="0 0 38 40">
  <path fill="#fff" fill-rule="evenodd" d="M18.858 11.366a7.438 7.438 0 015.259-2.178h3.825c.586 0 1.062.475 1.062 1.062v5.1c0 .587-.476 1.063-1.062 1.063h-3.825a.213.213 0 00-.213.212v2.762h4.038a1.063 1.063 0 011.03 1.32l-1.275 5.1a1.062 1.062 0 01-1.03.806h-2.763v9.137c0 .587-.476 1.063-1.062 1.063h-5.1a1.063 1.063 0 01-1.063-1.063v-9.137h-2.762a1.063 1.063 0 01-1.063-1.063v-5.1c0-.587.476-1.063 1.063-1.063h2.762v-2.762c0-1.973.784-3.864 2.179-5.26zm5.259-.053a5.313 5.313 0 00-5.313 5.312v3.825c0 .587-.476 1.063-1.062 1.063h-2.763v2.974h2.763c.586 0 1.062.476 1.062 1.063v9.137h2.975V25.55c0-.587.476-1.063 1.063-1.063h2.995l.744-2.974h-3.74a1.063 1.063 0 01-1.062-1.063v-3.825a2.338 2.338 0 012.338-2.338h2.762v-2.975h-2.762z" clip-rule="evenodd"/>
  <circle cx="19" cy="19" r="18" stroke="#fff" stroke-width="2"/>
</svg>
