<svg xmlns="http://www.w3.org/2000/svg" width="90" height="90" fill="none" viewBox="0 0 90 90">
  <circle cx="45" cy="45" r="45" fill="#E1D1BF"/>
  <path stroke="#373535" stroke-linecap="round" stroke-linejoin="round" stroke-width="5" d="M15.083 68.833h60.834M68.795 37.508l-21.292-18.63a3.042 3.042 0 00-4.006 0l-21.292 18.63a3.042 3.042 0 00-1.038 2.289v25.995a3.042 3.042 0 003.041 3.041h12.167a3.042 3.042 0 003.042-3.041V53.625a3.042 3.042 0 013.041-3.042h6.084a3.042 3.042 0 013.041 3.042v12.167a3.042 3.042 0 003.042 3.041h12.167a3.042 3.042 0 003.041-3.041V39.797c0-.877-.378-1.712-1.038-2.29z"/>
</svg>
