<svg xmlns="http://www.w3.org/2000/svg" width="45" height="45" fill="none" viewBox="0 0 45 45">
  <path fill="#fff" d="M30 13.125a1.875 1.875 0 113.75 0 1.875 1.875 0 01-3.75 0z"/>
  <path fill="#fff" fill-rule="evenodd" d="M22.5 13.594a8.906 8.906 0 100 17.812 8.906 8.906 0 000-17.812zM16.406 22.5a6.094 6.094 0 1112.188 0 6.094 6.094 0 01-12.188 0z" clip-rule="evenodd"/>
  <path fill="#fff" fill-rule="evenodd" d="M32.36 5.312a89.477 89.477 0 00-19.72 0c-3.772.422-6.817 3.393-7.26 7.186a86.102 86.102 0 000 20.004c.443 3.793 3.488 6.764 7.26 7.186a89.47 89.47 0 0019.72 0c3.772-.422 6.818-3.393 7.261-7.186a86.098 86.098 0 000-20.004c-.444-3.793-3.49-6.764-7.262-7.186zM12.952 8.107a86.665 86.665 0 0119.094 0c2.494.279 4.492 2.247 4.78 4.717a83.298 83.298 0 010 19.352c-.288 2.47-2.286 4.438-4.78 4.717a86.659 86.659 0 01-19.094 0c-2.494-.279-4.491-2.247-4.78-4.717a83.291 83.291 0 010-19.352c.289-2.47 2.286-4.438 4.78-4.717z" clip-rule="evenodd"/>
  <path stroke="#fff" d="M30 13.125a1.875 1.875 0 113.75 0 1.875 1.875 0 01-3.75 0z"/>
  <path stroke="#fff" d="M22.5 13.594a8.906 8.906 0 100 17.812 8.906 8.906 0 000-17.812zM16.406 22.5a6.094 6.094 0 1112.188 0 6.094 6.094 0 01-12.188 0z" clip-rule="evenodd"/>
  <path stroke="#fff" d="M32.36 5.312a89.477 89.477 0 00-19.72 0c-3.772.422-6.817 3.393-7.26 7.186a86.102 86.102 0 000 20.004c.443 3.793 3.488 6.764 7.26 7.186a89.47 89.47 0 0019.72 0c3.772-.422 6.818-3.393 7.261-7.186a86.098 86.098 0 000-20.004c-.444-3.793-3.49-6.764-7.262-7.186zM12.952 8.107a86.665 86.665 0 0119.094 0c2.494.279 4.492 2.247 4.78 4.717a83.298 83.298 0 010 19.352c-.288 2.47-2.286 4.438-4.78 4.717a86.659 86.659 0 01-19.094 0c-2.494-.279-4.491-2.247-4.78-4.717a83.291 83.291 0 010-19.352c.289-2.47 2.286-4.438 4.78-4.717z" clip-rule="evenodd"/>
</svg>
