<svg xmlns="http://www.w3.org/2000/svg" width="65" height="65" fill="none" viewBox="0 0 65 65">
  <path fill="#373535" d="M18.495 46.26l-2.144 1.286a2.5 2.5 0 00.858.858l1.286-2.144zm32.556-32.556l2.495-.167a2.5 2.5 0 00-2.328-2.328l-.167 2.495zM20.64 44.974c-2.675-4.458-3.678-8.505-3.45-11.986.227-3.452 1.676-6.544 4.27-9.138 5.267-5.267 15.424-8.585 29.426-7.652l.333-4.989c-14.725-.982-26.591 2.403-33.294 9.105-3.39 3.39-5.412 7.6-5.724 12.346-.31 4.719 1.08 9.768 4.151 14.886l4.288-2.572zM48.557 13.87c.933 14.002-2.385 24.159-7.652 29.425-2.594 2.594-5.686 4.044-9.139 4.27-3.48.23-7.527-.774-11.985-3.449l-2.572 4.288c5.118 3.07 10.167 4.46 14.885 4.15 4.747-.311 8.956-2.333 12.347-5.723 6.702-6.703 10.086-18.57 9.105-33.294l-4.99.333z"/>
  <path stroke="#373535" stroke-linecap="round" stroke-linejoin="round" stroke-width="5" d="M13.542 51.213l15.32-15.32"/>
</svg>
