<svg xmlns="http://www.w3.org/2000/svg" width="23" height="27" fill="none" viewBox="0 0 23 27">
  <path stroke="#373535" stroke-linecap="round" stroke-linejoin="round" stroke-width="2" d="M19.753 25.272H2.876a.997.997 0 01-.703-.29 1.186 1.186 0 01-.345-.73L1 10.655c-.004-.152.02-.303.071-.445.051-.14.128-.27.227-.377.098-.107.215-.191.344-.247a.938.938 0 01.406-.078h18.705c.278 0 .545.12.741.336.197.215.307.507.307.81l-1 13.608c-.031.28-.155.537-.348.723a.997.997 0 01-.7.286v0z"/>
  <path stroke="#373535" stroke-linecap="round" stroke-linejoin="round" stroke-width="2" d="M6.16 13.23V6.923c0-1.52.552-2.979 1.534-4.054.983-1.076 2.315-1.68 3.704-1.68 1.39 0 2.722.604 3.704 1.68.982 1.075 1.534 2.533 1.534 4.054v6.307"/>
</svg>
