<svg xmlns="http://www.w3.org/2000/svg" width="39" height="39" fill="none" viewBox="0 0 39 39">
  <path stroke="#3A4651" stroke-linecap="round" stroke-linejoin="round" stroke-width="2" d="M32.427 35.94H5.308a1.73 1.73 0 01-1.13-.407 1.583 1.583 0 01-.553-1.024l-1.33-19.044a1.495 1.495 0 01.114-.623c.082-.198.206-.378.363-.528a1.64 1.64 0 01.554-.347c.207-.079.43-.116.652-.109h30.057c.446 0 .875.17 1.19.47.316.302.493.71.493 1.137l-1.607 19.06c-.05.392-.249.753-.56 1.014-.31.26-.71.403-1.124.4v0z"/>
  <path stroke="#3A4651" stroke-linecap="round" stroke-linejoin="round" stroke-width="2" d="M10.585 19.071v-8.836c0-2.13.887-4.173 2.466-5.68 1.578-1.506 3.719-2.352 5.951-2.352 2.233 0 4.373.846 5.952 2.353 1.578 1.506 2.465 3.55 2.465 5.68v8.835"/>
</svg>
