<svg xmlns="http://www.w3.org/2000/svg" width="125" height="23" fill="none" viewBox="0 0 125 23">
  <path fill="#fff" d="M12.5 0l2.806 7.946h9.082l-7.347 4.911 2.806 7.947-7.347-4.911-7.347 4.91 2.806-7.946-7.347-4.91h9.082L12.5 0zM37.5 0l2.806 7.946h9.082l-7.347 4.911 2.806 7.947-7.347-4.911-7.347 4.91 2.806-7.946-7.347-4.91h9.082L37.5 0zM62.5 0l2.806 7.946h9.082l-7.347 4.911 2.806 7.947-7.347-4.911-7.347 4.91 2.806-7.946-7.347-4.91h9.082L62.5 0zM87.5 0l2.806 7.946h9.082l-7.347 4.911 2.806 7.947-7.347-4.911-7.347 4.91 2.806-7.946-7.347-4.91h9.082L87.5 0zM112.5 0l2.806 7.946h9.082l-7.347 4.911 2.806 7.947-7.347-4.911-7.347 4.91 2.806-7.946-7.347-4.91h9.082L112.5 0z"/>
</svg>
