<svg xmlns="http://www.w3.org/2000/svg" width="90" height="90" fill="none" viewBox="0 0 90 90">
  <circle cx="45" cy="45" r="45" fill="#E1D1BF"/>
  <path fill="#373535" d="M22.196 60.469h-2.352c-.666 0-1.213-.214-1.64-.641-.428-.428-.642-.974-.642-1.64v-34.22c0-.665.214-1.212.641-1.64.428-.427.975-.64 1.64-.64h41.063c.666 0 1.213.213 1.64.64.428.428.642.975.642 1.64v6.845H74.95c.57 0 1.057.177 1.462.533.404.356.654.82.748 1.39l3.85 25.093c.097.714-.081 1.332-.533 1.855-.452.523-1.01.785-1.674.785h-6.559c.19 1.997-.13 3.862-.963 5.596-.832 1.733-2.09 3.136-3.777 4.206-1.687 1.07-3.505 1.605-5.455 1.604-1.95-.001-3.768-.536-5.454-1.604-1.687-1.067-2.946-2.47-3.778-4.206-.832-1.737-1.153-3.602-.963-5.596h-9.268c.19 1.997-.131 3.862-.963 5.596-.832 1.733-2.091 3.136-3.778 4.206-1.687 1.07-3.505 1.605-5.454 1.604-1.95-.001-3.768-.536-5.455-1.604-1.686-1.067-2.946-2.47-3.778-4.206-.832-1.737-1.152-3.602-.962-5.596zm1.64-4.563c.998-1.426 2.233-2.543 3.707-3.35 1.474-.808 3.09-1.212 4.848-1.212s3.374.404 4.847 1.211c1.474.808 2.71 1.925 3.707 3.351h12.547c1.284-1.854 2.995-3.184 5.133-3.992V26.25h-36.5v29.656h1.71zm46.766 0h5.488l-1.355-9.125h-11.55v4.633c1.521.19 2.923.666 4.207 1.426a9.855 9.855 0 013.207 3.066h.003zm3.421-13.687l-1.07-6.844h-9.766v6.844h10.836zM62.047 67.312c1.617-.047 2.96-.605 4.029-1.674 1.069-1.07 1.603-2.412 1.603-4.029 0-1.616-.534-2.96-1.603-4.028-1.07-1.07-2.412-1.604-4.03-1.604-1.616 0-2.959.535-4.028 1.604-1.069 1.069-1.604 2.412-1.604 4.028 0 1.617.535 2.96 1.604 4.03 1.07 1.068 2.412 1.626 4.029 1.674zm-29.656 0c1.616-.047 2.96-.605 4.028-1.674 1.07-1.07 1.604-2.412 1.604-4.029 0-1.616-.535-2.96-1.604-4.028-1.069-1.07-2.412-1.604-4.028-1.604-1.617 0-2.96.535-4.03 1.604-1.068 1.069-1.603 2.412-1.603 4.028 0 1.617.535 2.96 1.604 4.03 1.07 1.068 2.412 1.626 4.029 1.674z"/>
</svg>
