<svg xmlns="http://www.w3.org/2000/svg" width="90" height="90" fill="none" viewBox="0 0 90 90">
  <circle cx="45" cy="45" r="45" fill="#E1D1BF"/>
  <path stroke="#373535" stroke-linecap="round" stroke-linejoin="round" stroke-width="5" d="M24.125 65.792c0-6.72 8.17-12.167 18.25-12.167s18.25 5.447 18.25 12.167"/>
  <path fill="#373535" d="M70.292 56.667a2.5 2.5 0 005 0h-5zm5-18.25a2.5 2.5 0 00-5 0h5zm0 18.25v-18.25h-5v18.25h5z"/>
  <path fill="#373535" d="M63.667 45.042a2.5 2.5 0 000 5v-5zm18.25 5a2.5 2.5 0 000-5v5zm-18.25 0h18.25v-5h-18.25v5z"/>
  <path stroke="#373535" stroke-linecap="round" stroke-linejoin="round" stroke-width="5" d="M42.375 44.5c6.72 0 12.167-5.447 12.167-12.167s-5.448-12.166-12.167-12.166c-6.72 0-12.167 5.447-12.167 12.166 0 6.72 5.448 12.167 12.167 12.167z"/>
</svg>
