<svg xmlns="http://www.w3.org/2000/svg" width="67" height="77" fill="none" viewBox="0 0 67 77">
  <g clip-path="url(#clip0_9_348)">
    <path fill="#fff" d="M64.374 76.165a2.71 2.71 0 01-.858.508c-.329.113-.675.168-1.023.16a2.443 2.443 0 01-1.01-.207 2.658 2.658 0 01-.832-.555 2.722 2.722 0 01-.558-.822 2.437 2.437 0 01-.207-1.002 2.49 2.49 0 01.207-1.008c.134-.307.323-.585.558-.822.232-.24.51-.431.818-.561.311-.14.65-.211.99-.208a2.24 2.24 0 011.456.502c.418.35.725.814.884 1.336a23.4 23.4 0 00-.837.32l-.97.395-1.011.407-.944.368a1.562 1.562 0 001.436.909c.226.004.452-.035.664-.114.197-.067.376-.177.526-.321l.711.715zm-.844-2.907a.94.94 0 00-.446-.447 1.503 1.503 0 00-.625-.147 1.53 1.53 0 00-.665.133c-.187.082-.356.2-.498.348-.14.145-.253.315-.332.501-.085.182-.129.38-.127.581v.08c.206-.073.426-.167.665-.26l.711-.3.665-.281.652-.207zM8.696 76.098c-.123.09-.254.169-.392.234-.191.091-.39.167-.592.227a5.314 5.314 0 01-1.649.247 4.363 4.363 0 01-1.788-.347 3.988 3.988 0 01-1.33-.936 4.26 4.26 0 01-.864-1.362 4.745 4.745 0 01-.293-1.657c-.008-.613.11-1.22.346-1.784.22-.525.542-1.002.944-1.403.405-.398.884-.711 1.41-.922a4.428 4.428 0 011.708-.334c.222.003.444.019.665.046.224.032.446.077.665.134.189.048.374.113.552.194.135.058.26.137.372.234a1.79 1.79 0 00-.146.233c-.04.06-.074.127-.113.194-.04.067-.08.147-.127.234-.046.087-.113.2-.193.34a1.327 1.327 0 00-.359-.18 2.833 2.833 0 00-.425-.113 3.526 3.526 0 00-.452-.074h-.419a3.236 3.236 0 00-2.267.922 3.147 3.147 0 00-.665.996c-.158.374-.24.776-.24 1.182.017.396.112.784.28 1.143.159.37.384.708.665.995.275.287.605.514.97.668.396.177.824.266 1.257.261.237.001.473-.021.705-.067a7.14 7.14 0 00.611-.167c.157-.053.31-.116.46-.187a.665.665 0 00.218-.147l.486 1.196zM14.001 76.833h-.85l-.114-1.336c-.17.388-.43.73-.758.995-.36.266-.797.402-1.243.388a1.67 1.67 0 01-1.19-.408 1.464 1.464 0 01-.465-1.069v-3.58h.997v3.133a.998.998 0 00.266.621c.201.191.467.299.744.3a1.628 1.628 0 001.17-.461c.14-.147.25-.319.326-.507.083-.213.124-.44.12-.668v-2.432h1.01l-.013 5.024zM18.15 72.216l-.532.709-.08-.06a1.851 1.851 0 00-.439-.18.932.932 0 00-.698.046.373.373 0 00-.193.36.457.457 0 00.16.361c.119.102.25.188.392.254.16.08.326.154.512.234.18.077.352.173.512.287.159.114.292.26.392.428.119.201.174.434.16.668a1.462 1.462 0 01-.452 1.096 1.725 1.725 0 01-1.264.414 2.65 2.65 0 01-.904-.16 1.68 1.68 0 01-.711-.468c.068-.063.13-.132.186-.207.066-.087.133-.174.2-.247l.166-.2a.32.32 0 01.073-.074c.006 0 0 0 .086.066.074.05.152.092.233.127.103.048.21.088.319.12.114.035.233.053.352.054a.768.768 0 00.479-.147.44.44 0 00.2-.374.396.396 0 00-.16-.334 1.794 1.794 0 00-.392-.234l-.519-.22a2.19 2.19 0 01-.518-.288 1.67 1.67 0 01-.393-.44 1.341 1.341 0 01-.16-.669 1.49 1.49 0 01.147-.668c.093-.173.222-.324.379-.44.155-.113.328-.197.512-.248.175-.05.356-.075.538-.073.25.004.498.051.732.14.25.086.477.228.665.414M19.831 69.604h.998v2.185h1.316v.895h-1.316v4.029h-.998v-4.029h-.884v-.895h.884v-2.185zM22.53 74.234c0-.345.071-.686.207-1.002.134-.306.323-.585.558-.822a2.647 2.647 0 013.71 0c.233.234.416.514.538.822a2.685 2.685 0 010 2.004c-.122.31-.305.592-.538.829a2.661 2.661 0 01-.825.56c-.327.142-.68.212-1.037.208a2.699 2.699 0 01-1.017-.187 2.576 2.576 0 01-.83-.535 2.564 2.564 0 01-.765-1.877zm1.004 0a1.58 1.58 0 00.964 1.47 1.654 1.654 0 001.243 0c.38-.159.685-.458.852-.835.085-.196.128-.408.126-.622a1.557 1.557 0 00-.126-.628 1.705 1.705 0 00-.346-.514 1.562 1.562 0 00-.512-.34 1.596 1.596 0 00-1.748.34c-.144.149-.259.323-.34.514-.08.2-.12.413-.12.628M28.806 71.775h.885c0 .247 0 .468.04.668l.04.595c.155-.388.398-.733.71-1.009a1.822 1.822 0 011.184-.38c.415-.023.824.108 1.15.367a1.393 1.393 0 01.506.955c.17-.367.418-.692.724-.955.331-.255.74-.385 1.157-.368.44-.027.873.122 1.203.415a1.457 1.457 0 01.466 1.062v3.588h-1.01v-3.127a1.06 1.06 0 00-.253-.668 1.003 1.003 0 00-.745-.288 1.389 1.389 0 00-1.104.455 1.802 1.802 0 00-.425 1.162v2.446h-.997v-3.127a1.072 1.072 0 00-.266-.668 1.016 1.016 0 00-.738-.288 1.483 1.483 0 00-.665.127 1.47 1.47 0 00-.485.334c-.135.147-.24.32-.306.508-.07.216-.105.442-.1.668v2.446h-.97v-4.918zM38.107 69.885a.606.606 0 01.206-.468.664.664 0 01.439-.194.663.663 0 01.665.668.596.596 0 01-.2.468.605.605 0 01-.432.187.615.615 0 01-.438-.187.58.58 0 01-.207-.468l-.033-.006zm1.117 6.828h-.997v-4.938h.997v4.938zM43.38 72.216l-.526.709-.08-.06a1.604 1.604 0 00-.445-.181.915.915 0 00-.691.047.373.373 0 00-.194.36.457.457 0 00.16.361c.118.104.25.19.392.254.153.08.326.154.512.234.18.079.351.175.512.287.157.116.29.261.392.428.119.201.175.434.16.668a1.464 1.464 0 01-.452 1.096 1.737 1.737 0 01-1.237.414c-.306 0-.61-.054-.897-.16a1.68 1.68 0 01-.711-.468c.064-.065.124-.134.179-.207.066-.087.133-.174.2-.247l.166-.2.08-.074.086.066c.071.05.147.092.226.127.104.047.21.087.319.12.114.034.233.052.352.054a.788.788 0 00.486-.147.44.44 0 00.2-.374.396.396 0 00-.16-.334 1.99 1.99 0 00-.393-.234l-.518-.22a2.19 2.19 0 01-.519-.288c-.157-.12-.29-.27-.392-.44a1.341 1.341 0 01-.16-.669 1.402 1.402 0 01.147-.668c.092-.173.221-.324.379-.44a1.52 1.52 0 01.511-.248c.176-.05.357-.075.539-.073.248.003.493.05.725.14.25.086.477.228.664.414M48.804 76.165c-.256.22-.548.391-.864.508-.33.125-.679.188-1.03.187a2.497 2.497 0 01-1.018-.207 2.746 2.746 0 01-.83-.555 2.716 2.716 0 01-.56-.822 2.549 2.549 0 010-2.01c.135-.307.324-.586.56-.823a2.66 2.66 0 01.817-.56c.314-.14.654-.21.997-.208a2.24 2.24 0 011.45.501c.41.345.713.802.87 1.316l-.83.321-.965.347-1.01.408-.938.368a1.58 1.58 0 001.43.881 1.85 1.85 0 00.664-.113c.194-.068.371-.178.52-.32l.737.78zm-.851-2.907a.906.906 0 00-.445-.447 1.464 1.464 0 00-1.25 0c-.188.082-.357.2-.499.347a1.71 1.71 0 00-.339.501 1.47 1.47 0 00-.12.582.234.234 0 000 .08c.207-.074.426-.167.665-.26l.712-.301.664-.281.585-.24M50.167 67.773c.066.107.213.321.439.669l.777 1.042.931 1.336.931 1.296c.286.408.538.762.758 1.056l.425.594.226-.32.466-.668.625-.882.724-1.002.732-1.023c.239-.34.458-.668.664-.928.206-.26.38-.522.519-.735.14-.214.253-.348.312-.428v8.94h-1.362v-4.798a1.137 1.137 0 010-.2.745.745 0 000-.154L57 72.05c-.153.227-.326.481-.532.769l-.625.908c-.219.321-.425.622-.625.902l-.518.755-.306.455-.319-.448-.565-.782-.665-.955-.665-.949-.525-.748a4.654 4.654 0 01-.26-.388.877.877 0 000 .154v4.997h-1.23v-8.946zM36.79 16.883c2.01-.115 4.026-.079 6.03.107a20.306 20.306 0 004.415-8.017c.731-2.592.946-5.303.632-7.978a27.017 27.017 0 00-4.229-.848c.626 3.157.31 6.43-.908 9.408a16.325 16.325 0 01-5.94 7.328"/>
    <path fill="#fff" d="M10.404 43.34a18.28 18.28 0 0010.947 8.732c4.656 1.337 9.65.76 13.884-1.603a8.082 8.082 0 016.167-.71 8.124 8.124 0 014.862 3.877l3.404-2.191a12.01 12.01 0 00-3.064-3.593 11.911 11.911 0 00-13.364-.944 14.132 14.132 0 01-10.77 1.21 14.207 14.207 0 01-8.48-6.782 14.327 14.327 0 01-1.246-10.82 14.253 14.253 0 016.715-8.548l14.18-7.938a12.22 12.22 0 005.323-6.003A12.296 12.296 0 0039.43 0c-1.378.06-2.75.23-4.102.508.68 1.828.684 3.84.013 5.672a8.146 8.146 0 01-3.67 4.31l-14.18 7.917A18.338 18.338 0 008.816 29.4a18.434 18.434 0 001.588 13.94M51.13 10.088a24.608 24.608 0 01-2.206 5.345l-1.264 2.259 2.66.741a40.344 40.344 0 0116.66 9.508c.047-.796.053-1.597 0-2.399a26.367 26.367 0 00-.306-3.22 44.472 44.472 0 00-13.09-7.156 28.48 28.48 0 001.45-3.962c.574-2.026.926-4.11 1.05-6.213a26.38 26.38 0 00-3.99-2.399 24.715 24.715 0 01-.963 7.496"/>
    <path fill="#fff" d="M3.324 47.296a26.41 26.41 0 0015.796 12.59 26.271 26.271 0 0020.03-2.295l3.544-2.004a4.06 4.06 0 00-2.43-1.938 4.037 4.037 0 00-3.08.355 22.197 22.197 0 01-17.266 2.474 22.26 22.26 0 01-7.972-3.978 22.386 22.386 0 01-5.789-6.793 22.521 22.521 0 01-1.84-17.43 22.45 22.45 0 014.243-7.862 22.322 22.322 0 016.963-5.57l14.18-7.917a4.078 4.078 0 001.885-2.302 4.1 4.1 0 00-.175-2.976 25.87 25.87 0 00-3.557 1.65l-14.3 7.978A26.502 26.502 0 001.032 27.16a26.64 26.64 0 002.292 20.135M58.93 12.327c-.047.167-.094.334-.147.5a48.676 48.676 0 016.116 3.241 26.646 26.646 0 00-5.086-7.817 34.316 34.316 0 01-.884 4.062M63.496 37.414l1.995-4.129c-2.16-3.22-4.414-5.177-7.758-7.376a28.965 28.965 0 00-10.585-4.277 28.905 28.905 0 00-11.408.148 2.081 2.081 0 00-1.369.892 2.102 2.102 0 001.402 3.247c.277.044.56.032.832-.036 10.51-2.225 21.46 2.926 26.891 11.531z"/>
    <path fill="#fff" d="M59.235 37.08a29.044 29.044 0 00-9.713-6.015 28.935 28.935 0 00-11.269-1.795 2.085 2.085 0 00-1.452.671 2.105 2.105 0 00.112 2.967c.407.378.946.58 1.5.558a25.872 25.872 0 0111.45 2.378 25.997 25.997 0 019.252 7.183 43.987 43.987 0 002.76-3.254 35.554 35.554 0 00-2.66-2.673M41.119 37.474a2.077 2.077 0 00-2.191.907 2.104 2.104 0 00.679 2.945c.241.145.509.239.787.277a25.12 25.12 0 0112.977 6.728 65.12 65.12 0 003.231-2.806 28.997 28.997 0 00-15.483-8.017M36.04 40.902a6.01 6.01 0 01-.712.875c-.365.383-.759.738-1.177 1.063-.501.391-1.028.75-1.575 1.075a13.17 13.17 0 01-1.995.956c-1.416.57-2.935.84-4.46.795a9.825 9.825 0 01-3.895-.931 9.869 9.869 0 01-3.206-2.41 11.28 11.28 0 01-2.154-3.574 11.011 11.011 0 01-.75-4.41c.05-1.409.378-2.794.963-4.075a10.94 10.94 0 012.453-3.341 11.219 11.219 0 013.683-2.278 12.806 12.806 0 011.65-.508 13.12 13.12 0 011.655-.294c.48-.059.965-.072 1.449-.04.36.013.716.078 1.057.194-.06.274-.107.5-.133.668-.027.167-.053.36-.087.548-.033.187-.066.407-.1.668a.988.988 0 01-.977.842h-.146a8.991 8.991 0 00-1.097.113 11.094 11.094 0 00-2.1.555 7.867 7.867 0 00-2.639 1.64 7.91 7.91 0 00-1.802 2.535 7.83 7.83 0 00-.665 2.887 7.445 7.445 0 00.99 4.008c.163.286.348.558.552.815.76.951 1.72 1.72 2.812 2.252a7.47 7.47 0 005.983.22 8.708 8.708 0 001.576-.795c.45-.262.882-.552 1.296-.868.32-.258.62-.54.898-.842a.612.612 0 01.87 0l1.783 1.657z"/>
    <path fill="#fff" d="M27.215 46.521h-.445a10.654 10.654 0 01-4.206-1.019 10.702 10.702 0 01-3.46-2.609 12.192 12.192 0 01-2.28-3.795 11.885 11.885 0 01-.818-4.736 11.586 11.586 0 011.044-4.383 11.701 11.701 0 012.66-3.621 12.221 12.221 0 013.942-2.446 14.443 14.443 0 013.503-.848 8.725 8.725 0 011.596-.047c.453.015.902.1 1.33.254a.806.806 0 01.498.942 5.73 5.73 0 00-.12.614c0 .18-.06.368-.093.562-.033.194-.06.387-.093.614a.06.06 0 000 .034 1.82 1.82 0 01-.604 1.094 1.803 1.803 0 01-1.164.442h-.12a8.823 8.823 0 00-1.004.1c-.345.06-.665.134-1.03.228-.309.079-.613.175-.91.287a7.061 7.061 0 00-2.434 1.53 7.024 7.024 0 00-2.154 4.804 6.667 6.667 0 00.83 3.594c.14.25.3.486.48.708a7.359 7.359 0 002.532 2.005 6.674 6.674 0 005.359.194 8.195 8.195 0 001.43-.722c.417-.257.82-.54 1.203-.849.287-.232.558-.484.81-.755a1.409 1.409 0 011.564-.387c.178.069.34.173.478.307l1.781 1.724a.81.81 0 01.12 1.022c-.24.364-.516.702-.824 1.01-.395.409-.817.79-1.264 1.142-.54.416-1.107.797-1.695 1.142-.679.393-1.388.73-2.12 1.009a12.133 12.133 0 01-4.342.855h.02zm.997-21.894c-.304.002-.608.02-.91.053a12.503 12.503 0 00-3.105.756 10.457 10.457 0 00-3.417 2.117c-.95.88-1.72 1.938-2.267 3.114a9.788 9.788 0 00-.891 3.761 10.23 10.23 0 00.698 4.082 10.55 10.55 0 001.994 3.288 9.073 9.073 0 002.946 2.224 9.03 9.03 0 003.583.862c1.415.04 2.824-.217 4.135-.755.65-.243 1.277-.543 1.875-.895a13.299 13.299 0 001.515-1.016c.386-.299.75-.625 1.09-.975l.214-.24-1.104-1.076a9.33 9.33 0 01-.851.775c-.423.357-.867.687-1.33.989a9.435 9.435 0 01-1.755.875 8.235 8.235 0 01-6.648-.24 9.023 9.023 0 01-3.091-2.48 7.02 7.02 0 01-.625-.921 8.297 8.297 0 01-1.097-4.47 8.82 8.82 0 01.738-3.18 8.946 8.946 0 011.908-2.726 8.724 8.724 0 012.985-1.884c.35-.132.708-.246 1.07-.34a12.19 12.19 0 011.19-.261c.397-.06.796-.099 1.197-.114h.18a.179.179 0 00.172-.154c.034-.26.073-.48.107-.668.033-.187.046-.307.073-.454H28.225"/>
  </g>
  <defs>
    <clipPath id="clip0_9_348">
      <path fill="#fff" d="M0 0h67v77H0z"/>
    </clipPath>
  </defs>
</svg>
