<svg id="Layer_5" data-name="Layer 5" xmlns="http://www.w3.org/2000/svg" viewBox="0 0 200 200"><defs><style>.cls-1{fill:#373635;}</style></defs><polygon class="cls-1" points="54.58 114.43 8.58 70.17 71.69 60.58 99.57 3.15 128.19 60.21 191.43 68.97 146.01 113.83 157.21 176.68 100.51 147.34 44.2 177.42 54.58 114.43"/><path class="cls-1" d="M99.58,4.28,127.63,60.2l.24.47.52.07,62,8.59-44.52,44-.37.37.09.52,11,61.59L101,147l-.46-.24L100,147,44.86,176.5,55,114.77l.09-.52-.38-.36L9.65,70.51l61.86-9.4L72,61l.22-.47L99.58,4.28m0-2.26-28.2,58.1L7.5,69.83,54,114.61l-10.5,63.73,57-30.43,57.37,29.68L146.54,114l46-45.38-64-8.87L99.56,2Z"/></svg>